<svg width="20" height="20" viewBox="0 0 20 20" fill="none" xmlns="http://www.w3.org/2000/svg">
<g id="edit-01">
<path id="Icon" d="M3.59278 14.332C3.62447 14.0468 3.64032 13.9041 3.68347 13.7708C3.72176 13.6526 3.77585 13.54 3.84429 13.4362C3.92142 13.3193 4.02289 13.2178 4.22583 13.0149L13.3359 3.90479C14.0979 3.14282 15.3333 3.14282 16.0952 3.90479C16.8572 4.66675 16.8572 5.90214 16.0952 6.66411L6.98514 15.7742C6.78221 15.9771 6.68074 16.0786 6.56377 16.1557C6.45999 16.2242 6.34744 16.2782 6.22917 16.3165C6.09587 16.3597 5.95325 16.3755 5.66801 16.4072L3.33337 16.6666L3.59278 14.332Z" stroke="#A0A1A3" stroke-width="2" stroke-linecap="round" stroke-linejoin="round"/>
</g>
</svg>
